<svg width="29" height="32" viewBox="0 0 29 32" fill="none" xmlns="http://www.w3.org/2000/svg">
<path d="M14.5 3.38739C7.99267 3.38739 2.69853 9.04541 2.69853 16C2.69853 22.9546 7.99267 28.6126 14.5 28.6126C21.0073 28.6126 26.3015 22.9546 26.3015 16C26.3015 9.04541 21.0073 3.38739 14.5 3.38739ZM14.5 26.0901C9.29437 26.0901 5.05883 21.5634 5.05883 16C5.05883 10.4366 9.29437 5.90991 14.5 5.90991C19.7056 5.90991 23.9412 10.4366 23.9412 16C23.9412 21.5634 19.7056 26.0901 14.5 26.0901Z" fill="#24BE34"/>
<path d="M12.1385 18.0016L9.42536 15.107L7.759 16.893L12.1409 21.566L20.0549 13.1079L18.3862 11.3245L12.1385 18.0016Z" fill="#24BE34"/>
</svg>
