<svg width="28" height="31" viewBox="0 0 28 31" fill="none" xmlns="http://www.w3.org/2000/svg">
<path d="M12.7059 3.3209C13.0731 2.2564 14.4625 2.2564 14.8308 3.3209L17.2059 10.553C17.3723 11.0323 17.7956 11.3514 18.2683 11.3514H24.105C25.1835 11.3514 25.6539 12.827 24.806 13.5497L20.6526 17.6577C20.4665 17.8149 20.3306 18.0329 20.2642 18.2803C20.1978 18.5277 20.2044 18.7919 20.2831 19.035L21.7999 26.1018C22.1694 27.2369 20.9738 28.2119 20.0697 27.5132L14.4281 23.578C14.2349 23.4288 14.0045 23.3487 13.7684 23.3487C13.5322 23.3487 13.3018 23.4288 13.1086 23.578L7.46705 27.5132C6.56408 28.2119 5.36737 27.2357 5.73683 26.1018L7.25364 19.035C7.33233 18.7919 7.33896 18.5277 7.27258 18.2803C7.20621 18.0329 7.07024 17.8149 6.88419 17.6577L2.73073 13.5497C1.88168 12.827 2.35439 11.3514 3.43062 11.3514H9.26727C9.49708 11.3522 9.7217 11.2763 9.91142 11.1337C10.1011 10.9912 10.247 10.7887 10.3297 10.553L12.7048 3.3209H12.7059Z" stroke="#EDE408" stroke-width="2" stroke-linecap="round" stroke-linejoin="round"/>
</svg>
