<svg width="22" height="31" viewBox="0 0 22 31" fill="none" xmlns="http://www.w3.org/2000/svg">
<path d="M2.12932 11.4953L3.64522 28.0048C3.7292 28.7025 6.79404 30.997 11.2316 31C15.6719 30.997 18.7367 28.7025 18.8193 28.0048L20.3366 11.4953C18.018 12.9211 14.5525 13.5946 11.2316 13.5946C7.91341 13.5946 4.44654 12.9211 2.12932 11.4953ZM15.5934 3.01513L14.4107 1.57578C13.9536 0.859891 13.4579 0.729729 12.4928 0.729729H9.97179C9.008 0.729729 8.51096 0.859891 8.05523 1.57578L6.87252 3.01513C3.33405 3.6947 0.767624 5.4973 0.767624 6.82767V7.08497C0.767624 9.42638 5.453 11.3243 11.2316 11.3243C17.0116 11.3243 21.6969 9.42638 21.6969 7.08497V6.82767C21.6969 5.4973 19.1319 3.6947 15.5934 3.01513ZM14.0816 7.29838L12.6084 5.27027H9.85476L8.38429 7.29838H6.04367C6.04367 7.29838 8.60734 3.93686 8.95017 3.4813C9.21177 3.13319 9.47888 3 9.82584 3H12.6387C12.9871 3 13.2542 3.13319 13.5158 3.4813C13.8572 3.93686 16.4223 7.29838 16.4223 7.29838H14.0816Z" fill="#BC0909"/>
</svg>
